<?xml version="1.0" encoding="UTF-8" standalone="no"?>
<!DOCTYPE svg PUBLIC "-//W3C//DTD SVG 1.1//EN"
 "http://www.w3.org/Graphics/SVG/1.1/DTD/svg11.dtd">
<!-- Generated by graphviz version 5.0.0 (20220707.1540)
 -->
<!-- Title: dependencies Pages: 1 -->
<svg width="834pt" height="174pt"
 viewBox="0.00 0.00 834.00 173.80" xmlns="http://www.w3.org/2000/svg" xmlns:xlink="http://www.w3.org/1999/xlink">
<g id="graph0" class="graph" transform="scale(1 1) rotate(0) translate(4 169.8)">
<title>dependencies</title>
<polygon fill="white" stroke="transparent" points="-4,4 -4,-169.8 830,-169.8 830,4 -4,4"/>
<text text-anchor="middle" x="413" y="-8.2" font-family="sans-serif" font-size="14.00">dependencies</text>
<g id="clust1" class="cluster">
<title>cluster_AppModule</title>
<polygon fill="none" stroke="black" stroke-dasharray="1,5" points="8,-32.8 8,-157.8 818,-157.8 818,-32.8 8,-32.8"/>
</g>
<g id="clust3" class="cluster">
<title>cluster_AppModule_imports</title>
<polygon fill="none" stroke="black" points="154,-40.8 154,-92.8 810,-92.8 810,-40.8 154,-40.8"/>
</g>
<g id="clust6" class="cluster">
<title>cluster_AppModule_providers</title>
<polygon fill="none" stroke="black" points="16,-40.8 16,-92.8 146,-92.8 146,-40.8 16,-40.8"/>
</g>
<!-- AuthModule -->
<g id="node1" class="node">
<title>AuthModule</title>
<polygon fill="#8dd3c7" stroke="black" points="801.55,-84.8 798.55,-88.8 777.55,-88.8 774.55,-84.8 714.45,-84.8 714.45,-48.8 801.55,-48.8 801.55,-84.8"/>
<text text-anchor="middle" x="758" y="-62.6" font-family="Times,serif" font-size="14.00">AuthModule</text>
</g>
<!-- AppModule -->
<g id="node7" class="node">
<title>AppModule</title>
<polygon fill="#8dd3c7" stroke="black" points="466.66,-149.8 463.66,-153.8 442.66,-153.8 439.66,-149.8 383.34,-149.8 383.34,-113.8 466.66,-113.8 466.66,-149.8"/>
<text text-anchor="middle" x="425" y="-127.6" font-family="Times,serif" font-size="14.00">AppModule</text>
</g>
<!-- AuthModule&#45;&gt;AppModule -->
<g id="edge1" class="edge">
<title>AuthModule&#45;&gt;AppModule</title>
<path fill="none" stroke="black" d="M758,-85.09C758,-107.01 758,-140.8 758,-140.8 758,-140.8 476.84,-140.8 476.84,-140.8"/>
<polygon fill="black" stroke="black" points="476.84,-137.3 466.84,-140.8 476.84,-144.3 476.84,-137.3"/>
</g>
<!-- GameModule -->
<g id="node2" class="node">
<title>GameModule</title>
<polygon fill="#8dd3c7" stroke="black" points="696.48,-84.8 693.48,-88.8 672.48,-88.8 669.48,-84.8 603.52,-84.8 603.52,-48.8 696.48,-48.8 696.48,-84.8"/>
<text text-anchor="middle" x="650" y="-62.6" font-family="Times,serif" font-size="14.00">GameModule</text>
</g>
<!-- GameModule&#45;&gt;AppModule -->
<g id="edge2" class="edge">
<title>GameModule&#45;&gt;AppModule</title>
<path fill="none" stroke="black" d="M650,-84.91C650,-104.14 650,-131.8 650,-131.8 650,-131.8 476.79,-131.8 476.79,-131.8"/>
<polygon fill="black" stroke="black" points="476.79,-128.3 466.79,-131.8 476.79,-135.3 476.79,-128.3"/>
</g>
<!-- RoomModule -->
<g id="node3" class="node">
<title>RoomModule</title>
<polygon fill="#8dd3c7" stroke="black" points="585.78,-84.8 582.78,-88.8 561.78,-88.8 558.78,-84.8 492.22,-84.8 492.22,-48.8 585.78,-48.8 585.78,-84.8"/>
<text text-anchor="middle" x="539" y="-62.6" font-family="Times,serif" font-size="14.00">RoomModule</text>
</g>
<!-- RoomModule&#45;&gt;AppModule -->
<g id="edge3" class="edge">
<title>RoomModule&#45;&gt;AppModule</title>
<path fill="none" stroke="black" d="M539,-84.83C539,-101.2 539,-122.8 539,-122.8 539,-122.8 476.8,-122.8 476.8,-122.8"/>
<polygon fill="black" stroke="black" points="476.8,-119.3 466.8,-122.8 476.8,-126.3 476.8,-119.3"/>
</g>
<!-- SharedModule -->
<g id="node4" class="node">
<title>SharedModule</title>
<polygon fill="#8dd3c7" stroke="black" points="474.43,-84.8 471.43,-88.8 450.43,-88.8 447.43,-84.8 375.57,-84.8 375.57,-48.8 474.43,-48.8 474.43,-84.8"/>
<text text-anchor="middle" x="425" y="-62.6" font-family="Times,serif" font-size="14.00">SharedModule</text>
</g>
<!-- SharedModule&#45;&gt;AppModule -->
<g id="edge4" class="edge">
<title>SharedModule&#45;&gt;AppModule</title>
<path fill="none" stroke="black" d="M425,-84.91C425,-84.91 425,-103.79 425,-103.79"/>
<polygon fill="black" stroke="black" points="421.5,-103.79 425,-113.79 428.5,-103.79 421.5,-103.79"/>
</g>
<!-- TeamModule -->
<g id="node5" class="node">
<title>TeamModule</title>
<polygon fill="#8dd3c7" stroke="black" points="357.92,-84.8 354.92,-88.8 333.92,-88.8 330.92,-84.8 266.08,-84.8 266.08,-48.8 357.92,-48.8 357.92,-84.8"/>
<text text-anchor="middle" x="312" y="-62.6" font-family="Times,serif" font-size="14.00">TeamModule</text>
</g>
<!-- TeamModule&#45;&gt;AppModule -->
<g id="edge5" class="edge">
<title>TeamModule&#45;&gt;AppModule</title>
<path fill="none" stroke="black" d="M312,-84.83C312,-101.2 312,-122.8 312,-122.8 312,-122.8 373.24,-122.8 373.24,-122.8"/>
<polygon fill="black" stroke="black" points="373.24,-126.3 383.24,-122.8 373.24,-119.3 373.24,-126.3"/>
</g>
<!-- UserModule -->
<g id="node6" class="node">
<title>UserModule</title>
<polygon fill="#8dd3c7" stroke="black" points="247.99,-84.8 244.99,-88.8 223.99,-88.8 220.99,-84.8 162.01,-84.8 162.01,-48.8 247.99,-48.8 247.99,-84.8"/>
<text text-anchor="middle" x="205" y="-62.6" font-family="Times,serif" font-size="14.00">UserModule</text>
</g>
<!-- UserModule&#45;&gt;AppModule -->
<g id="edge6" class="edge">
<title>UserModule&#45;&gt;AppModule</title>
<path fill="none" stroke="black" d="M205,-84.91C205,-104.14 205,-131.8 205,-131.8 205,-131.8 373.1,-131.8 373.1,-131.8"/>
<polygon fill="black" stroke="black" points="373.1,-135.3 383.1,-131.8 373.1,-128.3 373.1,-135.3"/>
</g>
<!-- AppService -->
<g id="node8" class="node">
<title>AppService</title>
<ellipse fill="#fdb462" stroke="black" cx="81" cy="-66.8" rx="56.75" ry="18"/>
<text text-anchor="middle" x="81" y="-62.6" font-family="Times,serif" font-size="14.00">AppService</text>
</g>
<!-- AppService&#45;&gt;AppModule -->
<g id="edge7" class="edge">
<title>AppService&#45;&gt;AppModule</title>
<path fill="none" stroke="black" d="M81,-85.09C81,-107.01 81,-140.8 81,-140.8 81,-140.8 373.16,-140.8 373.16,-140.8"/>
<polygon fill="black" stroke="black" points="373.16,-144.3 383.16,-140.8 373.16,-137.3 373.16,-144.3"/>
</g>
</g>
</svg>
