<?xml version="1.0" encoding="UTF-8" standalone="no"?>
<!DOCTYPE svg PUBLIC "-//W3C//DTD SVG 1.1//EN"
 "http://www.w3.org/Graphics/SVG/1.1/DTD/svg11.dtd">
<!-- Generated by graphviz version 5.0.0 (20220707.1540)
 -->
<!-- Title: dependencies Pages: 1 -->
<svg width="2006pt" height="250pt"
 viewBox="0.00 0.00 2006.00 249.80" xmlns="http://www.w3.org/2000/svg" xmlns:xlink="http://www.w3.org/1999/xlink">
<g id="graph0" class="graph" transform="scale(1 1) rotate(0) translate(4 245.8)">
<title>dependencies</title>
<polygon fill="white" stroke="transparent" points="-4,4 -4,-245.8 2002,-245.8 2002,4 -4,4"/>
<text text-anchor="middle" x="999" y="-8.2" font-family="sans-serif" font-size="14.00">dependencies</text>
<g id="clust1" class="cluster">
<title>cluster_AppModule</title>
<polygon fill="none" stroke="black" stroke-dasharray="1,5" points="447,-32.8 447,-233.8 1152,-233.8 1152,-32.8 447,-32.8"/>
</g>
<g id="clust3" class="cluster">
<title>cluster_AppModule_imports</title>
<polygon fill="none" stroke="black" points="593,-40.8 593,-168.8 1144,-168.8 1144,-40.8 593,-40.8"/>
</g>
<g id="clust6" class="cluster">
<title>cluster_AppModule_providers</title>
<polygon fill="none" stroke="black" points="455,-116.8 455,-168.8 585,-168.8 585,-116.8 455,-116.8"/>
</g>
<g id="clust7" class="cluster">
<title>cluster_AuthModule</title>
<polygon fill="none" stroke="black" stroke-dasharray="1,5" points="8,-32.8 8,-100.8 439,-100.8 439,-32.8 8,-32.8"/>
</g>
<g id="clust12" class="cluster">
<title>cluster_AuthModule_providers</title>
<polygon fill="none" stroke="black" points="16,-40.8 16,-92.8 431,-92.8 431,-40.8 16,-40.8"/>
</g>
<g id="clust25" class="cluster">
<title>cluster_RoomModule</title>
<polygon fill="none" stroke="black" stroke-dasharray="1,5" points="1160,-108.8 1160,-176.8 1440,-176.8 1440,-108.8 1160,-108.8"/>
</g>
<g id="clust28" class="cluster">
<title>cluster_RoomModule_exports</title>
<polygon fill="none" stroke="black" points="1320,-116.8 1320,-168.8 1432,-168.8 1432,-116.8 1320,-116.8"/>
</g>
<g id="clust30" class="cluster">
<title>cluster_RoomModule_providers</title>
<polygon fill="none" stroke="black" points="1168,-116.8 1168,-168.8 1312,-168.8 1312,-116.8 1168,-116.8"/>
</g>
<g id="clust37" class="cluster">
<title>cluster_TeamModule</title>
<polygon fill="none" stroke="black" stroke-dasharray="1,5" points="1448,-108.8 1448,-176.8 1722,-176.8 1722,-108.8 1448,-108.8"/>
</g>
<g id="clust40" class="cluster">
<title>cluster_TeamModule_exports</title>
<polygon fill="none" stroke="black" points="1604,-116.8 1604,-168.8 1714,-168.8 1714,-116.8 1604,-116.8"/>
</g>
<g id="clust42" class="cluster">
<title>cluster_TeamModule_providers</title>
<polygon fill="none" stroke="black" points="1456,-116.8 1456,-168.8 1596,-168.8 1596,-116.8 1456,-116.8"/>
</g>
<g id="clust43" class="cluster">
<title>cluster_UserModule</title>
<polygon fill="none" stroke="black" stroke-dasharray="1,5" points="1730,-108.8 1730,-176.8 1990,-176.8 1990,-108.8 1730,-108.8"/>
</g>
<g id="clust46" class="cluster">
<title>cluster_UserModule_exports</title>
<polygon fill="none" stroke="black" points="1878,-116.8 1878,-168.8 1982,-168.8 1982,-116.8 1878,-116.8"/>
</g>
<g id="clust48" class="cluster">
<title>cluster_UserModule_providers</title>
<polygon fill="none" stroke="black" points="1738,-116.8 1738,-168.8 1870,-168.8 1870,-116.8 1738,-116.8"/>
</g>
<!-- AuthModule -->
<g id="node1" class="node">
<title>AuthModule</title>
<polygon fill="#8dd3c7" stroke="black" points="688.55,-160.8 685.55,-164.8 664.55,-164.8 661.55,-160.8 601.45,-160.8 601.45,-124.8 688.55,-124.8 688.55,-160.8"/>
<text text-anchor="middle" x="645" y="-138.6" font-family="Times,serif" font-size="14.00">AuthModule</text>
</g>
<!-- AppModule -->
<g id="node7" class="node">
<title>AppModule</title>
<polygon fill="#8dd3c7" stroke="black" points="802.66,-225.8 799.66,-229.8 778.66,-229.8 775.66,-225.8 719.34,-225.8 719.34,-189.8 802.66,-189.8 802.66,-225.8"/>
<text text-anchor="middle" x="761" y="-203.6" font-family="Times,serif" font-size="14.00">AppModule</text>
</g>
<!-- AuthModule&#45;&gt;AppModule -->
<g id="edge1" class="edge">
<title>AuthModule&#45;&gt;AppModule</title>
<path fill="none" stroke="black" d="M688.58,-151.8C716.32,-151.8 747.06,-151.8 747.06,-151.8 747.06,-151.8 747.06,-179.77 747.06,-179.77"/>
<polygon fill="black" stroke="black" points="743.56,-179.77 747.06,-189.77 750.56,-179.77 743.56,-179.77"/>
</g>
<!-- GameModule -->
<g id="node2" class="node">
<title>GameModule</title>
<polygon fill="#8dd3c7" stroke="black" points="693.48,-84.8 690.48,-88.8 669.48,-88.8 666.48,-84.8 600.52,-84.8 600.52,-48.8 693.48,-48.8 693.48,-84.8"/>
<text text-anchor="middle" x="647" y="-62.6" font-family="Times,serif" font-size="14.00">GameModule</text>
</g>
<!-- GameModule&#45;&gt;AppModule -->
<g id="edge2" class="edge">
<title>GameModule&#45;&gt;AppModule</title>
<path fill="none" stroke="black" d="M693.7,-66.8C699.05,-66.8 702.64,-66.8 702.64,-66.8 702.64,-66.8 702.64,-201.8 702.64,-201.8 702.64,-201.8 709.21,-201.8 709.21,-201.8"/>
<polygon fill="black" stroke="black" points="709.21,-205.3 719.21,-201.8 709.21,-198.3 709.21,-205.3"/>
</g>
<!-- RoomModule -->
<g id="node3" class="node">
<title>RoomModule</title>
<polygon fill="#8dd3c7" stroke="black" points="921.78,-84.8 918.78,-88.8 897.78,-88.8 894.78,-84.8 828.22,-84.8 828.22,-48.8 921.78,-48.8 921.78,-84.8"/>
<text text-anchor="middle" x="875" y="-62.6" font-family="Times,serif" font-size="14.00">RoomModule</text>
</g>
<!-- RoomModule&#45;&gt;AppModule -->
<g id="edge3" class="edge">
<title>RoomModule&#45;&gt;AppModule</title>
<path fill="none" stroke="black" d="M875,-84.88C875,-121.03 875,-198.8 875,-198.8 875,-198.8 812.8,-198.8 812.8,-198.8"/>
<polygon fill="black" stroke="black" points="812.8,-195.3 802.8,-198.8 812.8,-202.3 812.8,-195.3"/>
</g>
<!-- RoomService  -->
<g id="node12" class="node">
<title>RoomService </title>
<polygon fill="#fb8072" stroke="black" points="1423.71,-160.8 1328.29,-160.8 1328.29,-124.8 1423.71,-124.8 1423.71,-160.8"/>
<text text-anchor="middle" x="1376" y="-138.6" font-family="Times,serif" font-size="14.00">RoomService </text>
</g>
<!-- RoomModule&#45;&gt;RoomService  -->
<g id="edge12" class="edge">
<title>RoomModule&#45;&gt;RoomService </title>
<path fill="none" stroke="black" stroke-dasharray="5,2" d="M851.56,-84.91C851.56,-94.7 851.56,-104.8 851.56,-104.8 851.56,-104.8 1376,-104.8 1376,-104.8 1376,-104.8 1376,-114.69 1376,-114.69"/>
<polygon fill="black" stroke="black" points="1372.5,-114.69 1376,-124.69 1379.5,-114.69 1372.5,-114.69"/>
</g>
<!-- SharedModule -->
<g id="node4" class="node">
<title>SharedModule</title>
<polygon fill="#8dd3c7" stroke="black" points="810.43,-84.8 807.43,-88.8 786.43,-88.8 783.43,-84.8 711.57,-84.8 711.57,-48.8 810.43,-48.8 810.43,-84.8"/>
<text text-anchor="middle" x="761" y="-62.6" font-family="Times,serif" font-size="14.00">SharedModule</text>
</g>
<!-- SharedModule&#45;&gt;AppModule -->
<g id="edge4" class="edge">
<title>SharedModule&#45;&gt;AppModule</title>
<path fill="none" stroke="black" d="M774.94,-84.94C774.94,-84.94 774.94,-179.73 774.94,-179.73"/>
<polygon fill="black" stroke="black" points="771.44,-179.72 774.94,-189.73 778.44,-179.73 771.44,-179.72"/>
</g>
<!-- TeamModule -->
<g id="node5" class="node">
<title>TeamModule</title>
<polygon fill="#8dd3c7" stroke="black" points="1031.92,-84.8 1028.92,-88.8 1007.92,-88.8 1004.92,-84.8 940.08,-84.8 940.08,-48.8 1031.92,-48.8 1031.92,-84.8"/>
<text text-anchor="middle" x="986" y="-62.6" font-family="Times,serif" font-size="14.00">TeamModule</text>
</g>
<!-- TeamModule&#45;&gt;AppModule -->
<g id="edge5" class="edge">
<title>TeamModule&#45;&gt;AppModule</title>
<path fill="none" stroke="black" d="M1008.86,-84.94C1008.86,-123.03 1008.86,-207.8 1008.86,-207.8 1008.86,-207.8 812.76,-207.8 812.76,-207.8"/>
<polygon fill="black" stroke="black" points="812.77,-204.3 802.76,-207.8 812.76,-211.3 812.77,-204.3"/>
</g>
<!-- TeamService  -->
<g id="node14" class="node">
<title>TeamService </title>
<polygon fill="#fb8072" stroke="black" points="1705.85,-160.8 1612.15,-160.8 1612.15,-124.8 1705.85,-124.8 1705.85,-160.8"/>
<text text-anchor="middle" x="1659" y="-138.6" font-family="Times,serif" font-size="14.00">TeamService </text>
</g>
<!-- TeamModule&#45;&gt;TeamService  -->
<g id="edge14" class="edge">
<title>TeamModule&#45;&gt;TeamService </title>
<path fill="none" stroke="black" stroke-dasharray="5,2" d="M963.14,-84.97C963.14,-88.85 963.14,-91.8 963.14,-91.8 963.14,-91.8 1659,-91.8 1659,-91.8 1659,-91.8 1659,-114.68 1659,-114.68"/>
<polygon fill="black" stroke="black" points="1655.5,-114.68 1659,-124.68 1662.5,-114.68 1655.5,-114.68"/>
</g>
<!-- UserModule -->
<g id="node6" class="node">
<title>UserModule</title>
<polygon fill="#8dd3c7" stroke="black" points="1135.99,-84.8 1132.99,-88.8 1111.99,-88.8 1108.99,-84.8 1050.01,-84.8 1050.01,-48.8 1135.99,-48.8 1135.99,-84.8"/>
<text text-anchor="middle" x="1093" y="-62.6" font-family="Times,serif" font-size="14.00">UserModule</text>
</g>
<!-- UserModule&#45;&gt;AuthModule -->
<g id="edge8" class="edge">
<title>UserModule&#45;&gt;AuthModule</title>
<path fill="none" stroke="black" d="M1078.67,-85.11C1078.67,-104.95 1078.67,-133.8 1078.67,-133.8 1078.67,-133.8 698.57,-133.8 698.57,-133.8"/>
<polygon fill="black" stroke="black" points="698.57,-130.3 688.57,-133.8 698.57,-137.3 698.57,-130.3"/>
</g>
<!-- UserModule&#45;&gt;AppModule -->
<g id="edge6" class="edge">
<title>UserModule&#45;&gt;AppModule</title>
<path fill="none" stroke="black" d="M1107.33,-84.89C1107.33,-124.79 1107.33,-216.8 1107.33,-216.8 1107.33,-216.8 812.78,-216.8 812.78,-216.8"/>
<polygon fill="black" stroke="black" points="812.78,-213.3 802.78,-216.8 812.78,-220.3 812.78,-213.3"/>
</g>
<!-- UserService  -->
<g id="node16" class="node">
<title>UserService </title>
<polygon fill="#fb8072" stroke="black" points="1973.91,-160.8 1886.09,-160.8 1886.09,-124.8 1973.91,-124.8 1973.91,-160.8"/>
<text text-anchor="middle" x="1930" y="-138.6" font-family="Times,serif" font-size="14.00">UserService </text>
</g>
<!-- UserModule&#45;&gt;UserService  -->
<g id="edge16" class="edge">
<title>UserModule&#45;&gt;UserService </title>
<path fill="none" stroke="black" stroke-dasharray="5,2" d="M1136.24,-60.8C1307.63,-60.8 1930,-60.8 1930,-60.8 1930,-60.8 1930,-114.6 1930,-114.6"/>
<polygon fill="black" stroke="black" points="1926.5,-114.6 1930,-124.6 1933.5,-114.6 1926.5,-114.6"/>
</g>
<!-- AppService -->
<g id="node8" class="node">
<title>AppService</title>
<ellipse fill="#fdb462" stroke="black" cx="520" cy="-142.8" rx="56.75" ry="18"/>
<text text-anchor="middle" x="520" y="-138.6" font-family="Times,serif" font-size="14.00">AppService</text>
</g>
<!-- AppService&#45;&gt;AppModule -->
<g id="edge7" class="edge">
<title>AppService&#45;&gt;AppModule</title>
<path fill="none" stroke="black" d="M520,-161.08C520,-182.12 520,-213.8 520,-213.8 520,-213.8 709.3,-213.8 709.3,-213.8"/>
<polygon fill="black" stroke="black" points="709.3,-217.3 719.3,-213.8 709.3,-210.3 709.3,-217.3"/>
</g>
<!-- AuthService -->
<g id="node9" class="node">
<title>AuthService</title>
<ellipse fill="#fdb462" stroke="black" cx="215" cy="-66.8" rx="59.11" ry="18"/>
<text text-anchor="middle" x="215" y="-62.6" font-family="Times,serif" font-size="14.00">AuthService</text>
</g>
<!-- AuthService&#45;&gt;AuthModule -->
<g id="edge9" class="edge">
<title>AuthService&#45;&gt;AuthModule</title>
<path fill="none" stroke="black" d="M215,-84.84C215,-97.36 215,-111.8 215,-111.8 215,-111.8 659.59,-111.8 659.59,-111.8 659.59,-111.8 659.59,-114.77 659.59,-114.77"/>
<polygon fill="black" stroke="black" points="656.09,-114.77 659.59,-124.77 663.09,-114.77 656.09,-114.77"/>
</g>
<!-- JwtStrategy -->
<g id="node10" class="node">
<title>JwtStrategy</title>
<ellipse fill="#fdb462" stroke="black" cx="81" cy="-66.8" rx="56.77" ry="18"/>
<text text-anchor="middle" x="81" y="-62.6" font-family="Times,serif" font-size="14.00">JwtStrategy</text>
</g>
<!-- JwtStrategy&#45;&gt;AuthModule -->
<g id="edge10" class="edge">
<title>JwtStrategy&#45;&gt;AuthModule</title>
<path fill="none" stroke="black" d="M81,-84.99C81,-99.98 81,-118.8 81,-118.8 81,-118.8 630.41,-118.8 630.41,-118.8 630.41,-118.8 630.41,-119.38 630.41,-119.38"/>
<polygon fill="black" stroke="black" points="626.91,-114.61 630.41,-124.61 633.91,-114.61 626.91,-114.61"/>
</g>
<!-- LocalStrategy -->
<g id="node11" class="node">
<title>LocalStrategy</title>
<ellipse fill="#fdb462" stroke="black" cx="358" cy="-66.8" rx="65.4" ry="18"/>
<text text-anchor="middle" x="358" y="-62.6" font-family="Times,serif" font-size="14.00">LocalStrategy</text>
</g>
<!-- LocalStrategy&#45;&gt;AuthModule -->
<g id="edge11" class="edge">
<title>LocalStrategy&#45;&gt;AuthModule</title>
<path fill="none" stroke="black" d="M423.45,-66.8C491.62,-66.8 588.57,-66.8 588.57,-66.8 588.57,-66.8 588.57,-142.8 588.57,-142.8 588.57,-142.8 591.37,-142.8 591.37,-142.8"/>
<polygon fill="black" stroke="black" points="591.37,-146.3 601.37,-142.8 591.37,-139.3 591.37,-146.3"/>
</g>
<!-- RoomService -->
<g id="node13" class="node">
<title>RoomService</title>
<ellipse fill="#fdb462" stroke="black" cx="1240" cy="-142.8" rx="63.71" ry="18"/>
<text text-anchor="middle" x="1240" y="-138.6" font-family="Times,serif" font-size="14.00">RoomService</text>
</g>
<!-- RoomService&#45;&gt;RoomModule -->
<g id="edge13" class="edge">
<title>RoomService&#45;&gt;RoomModule</title>
<path fill="none" stroke="black" d="M1176.16,-142.8C1077.3,-142.8 898.44,-142.8 898.44,-142.8 898.44,-142.8 898.44,-94.81 898.44,-94.81"/>
<polygon fill="black" stroke="black" points="901.94,-94.81 898.44,-84.81 894.94,-94.81 901.94,-94.81"/>
</g>
<!-- TeamService -->
<g id="node15" class="node">
<title>TeamService</title>
<ellipse fill="#fdb462" stroke="black" cx="1526" cy="-142.8" rx="61.95" ry="18"/>
<text text-anchor="middle" x="1526" y="-138.6" font-family="Times,serif" font-size="14.00">TeamService</text>
</g>
<!-- TeamService&#45;&gt;TeamModule -->
<g id="edge15" class="edge">
<title>TeamService&#45;&gt;TeamModule</title>
<path fill="none" stroke="black" d="M1526,-124.65C1526,-112.53 1526,-98.8 1526,-98.8 1526,-98.8 986,-98.8 986,-98.8 986,-98.8 986,-95.04 986,-95.04"/>
<polygon fill="black" stroke="black" points="989.5,-95.04 986,-85.04 982.5,-95.04 989.5,-95.04"/>
</g>
<!-- UserService -->
<g id="node17" class="node">
<title>UserService</title>
<ellipse fill="#fdb462" stroke="black" cx="1804" cy="-142.8" rx="58.46" ry="18"/>
<text text-anchor="middle" x="1804" y="-138.6" font-family="Times,serif" font-size="14.00">UserService</text>
</g>
<!-- UserService&#45;&gt;UserModule -->
<g id="edge17" class="edge">
<title>UserService&#45;&gt;UserModule</title>
<path fill="none" stroke="black" d="M1804,-124.77C1804,-104.03 1804,-72.8 1804,-72.8 1804,-72.8 1146.14,-72.8 1146.14,-72.8"/>
<polygon fill="black" stroke="black" points="1146.14,-69.3 1136.14,-72.8 1146.14,-76.3 1146.14,-69.3"/>
</g>
</g>
</svg>
